{
  "source": "C:\\Users\\Peter\\Desktop\\stuff\\MIUN\\quantitative_research\\video_compression\\videos\\BVI-HD\\RockWater_1920x1080_30fps.mp4",
  "output": "C:\\Users\\Peter\\Desktop\\stuff\\MIUN\\quantitative_research\\video_compression\\compressed_videos\\BVI-HD\\hevc\\1\\RockWater_1920x1080_30fps_hevc.mp4",
  "codec": "hevc",
  "ok": "Input #0, mov,mp4,m4a,3gp,3g2,mj2, from 'C:\\Users\\Peter\\Desktop\\stuff\\MIUN\\quantitative_research\\video_compression\\videos\\BVI-HD\\RockWater_1920x1080_30fps.mp4':\n  Metadata:\n    major_brand     : isom\n    minor_version   : 512\n    compatible_brands: isomiso2avc1mp41\n    encoder         : Lavf54.28.101\n  Duration: 00:00:05.00, start: 0.000000, bitrate: 245943 kb/s\n  Stream #0:0[0x1](und): Video: h264 (High 4:4:4 Predictive) (avc1 / 0x31637661), yuv420p(progressive), 1920x1080, 245940 kb/s, 30 fps, 30 tbr, 30 tbn (default)\n    Metadata:\n      handler_name    : VideoHandler\n      vendor_id       : [0][0][0][0]\n[out#0/mp4 @ 0000024c8bd41440] Codec AVOption b:a (set bitrate (in bits/s)) has not been used for any stream. The most likely reason is either wrong type (e.g. a video option with no video streams) or that it is a private option of some decoder which was not actually used for any stream.\nStream mapping:\n  Stream #0:0 -> #0:0 (h264 (native) -> hevc (libx265))\nPress [q] to stop, [?] for help\n[libx265 @ 0000024c8c5f47c0] Unknown option: \"aq-mode.\nx265 [info]: HEVC encoder version 4.1+190-8f11c33ac\nx265 [info]: build info [Windows][GCC 15.1.0][64 bit] 10bit\nx265 [info]: using cpu capabilities: MMX2 SSE2Fast LZCNT SSSE3 SSE4.2 AVX FMA3 BMI2 AVX2\nx265 [info]: Main 10 profile, Level-4 (Main tier)\nx265 [info]: Thread pool created using 12 threads\nx265 [info]: Slices                              : 1\nx265 [info]: frame threads / pool features       : 3 / wpp(17 rows)\nx265 [info]: Coding QT: max CU size, min CU size : 64 / 8\nx265 [info]: Residual QT: max TU size, max depth : 32 / 1 inter / 1 intra\nx265 [info]: ME / range / subpel / merge         : star / 57 / 3 / 3\nx265 [info]: Keyframe min / max / scenecut / bias  : 25 / 250 / 40 / 5.00 \nx265 [info]: Lookahead / bframes / badapt        : 25 / 4 / 2\nx265 [info]: b-pyramid / weightp / weightb       : 1 / 1 / 0\nx265 [info]: References / ref-limit  cu / depth  : 4 / on / on\nx265 [info]: AQ: mode / str / qg-size / cu-tree  : 2 / 1.0 / 32 / 1\nx265 [info]: Rate Control / qCompress            : ABR-1000 kbps / 0.60\nx265 [info]: VBV/HRD buffer / max-rate / init    : 1000 / 1000 / 0.750\nx265 [info]: tools: rect limit-modes rd=4 psy-rd=2.00 rdoq=2 psy-rdoq=1.00\nx265 [info]: tools: rskip mode=1 signhide tmvp strong-intra-smoothing lslices=4\nx265 [info]: tools: deblock sao dhdr10-info\nOutput #0, mp4, to 'C:\\Users\\Peter\\Desktop\\stuff\\MIUN\\quantitative_research\\video_compression\\compressed_videos\\BVI-HD\\hevc\\1\\RockWater_1920x1080_30fps_hevc.mp4':\n  Metadata:\n    major_brand     : isom\n    minor_version   : 512\n    compatible_brands: isomiso2avc1mp41\n    encoder         : Lavf62.3.100\n  Stream #0:0(und): Video: hevc (hev1 / 0x31766568), yuv420p10le(tv, progressive), 1920x1080, q=2-31, 1000 kb/s, 30 fps, 15360 tbn (default)\n    Metadata:\n      encoder         : Lavc62.11.100 libx265\n      handler_name    : VideoHandler\n      vendor_id       : [0][0][0][0]\n    Side data:\n      cpb: bitrate max/min/avg: 1000000/0/1000000 buffer size: 1000000 vbv_delay: N/A\nframe=    0 fps=0.0 q=0.0 size=       0KiB time=N/A bitrate=N/A speed=N/A elapsed=0:00:00.51    \nframe=    0 fps=0.0 q=0.0 size=       0KiB time=N/A bitrate=N/A speed=N/A elapsed=0:00:01.03    \nframe=    0 fps=0.0 q=0.0 size=       0KiB time=N/A bitrate=N/A speed=N/A elapsed=0:00:01.56    \nframe=    3 fps=1.4 q=51.0 size=       0KiB time=00:00:00.03 bitrate=  10.6kbits/s speed=0.0161x elapsed=0:00:02.07    \nframe=    7 fps=2.7 q=50.4 size=       0KiB time=00:00:00.16 bitrate=   2.1kbits/s speed=0.0645x elapsed=0:00:02.58    \nframe=    9 fps=2.9 q=47.3 size=       0KiB time=00:00:00.23 bitrate=   1.5kbits/s speed=0.075x elapsed=0:00:03.11    \nframe=   12 fps=3.3 q=46.7 size=       0KiB time=00:00:00.33 bitrate=   1.1kbits/s speed=0.0921x elapsed=0:00:03.61    \nframe=   15 fps=3.6 q=48.7 size=       0KiB time=00:00:00.43 bitrate=   0.8kbits/s speed=0.105x elapsed=0:00:04.13    \nframe=   17 fps=3.7 q=48.5 size=       0KiB time=00:00:00.50 bitrate=   0.7kbits/s speed=0.108x elapsed=0:00:04.64    \nframe=   20 fps=3.9 q=46.7 size=       0KiB time=00:00:00.60 bitrate=   0.6kbits/s speed=0.116x elapsed=0:00:05.16    \nframe=   23 fps=4.0 q=48.5 size=       0KiB time=00:00:00.70 bitrate=   0.5kbits/s speed=0.123x elapsed=0:00:05.68    \nframe=   25 fps=4.0 q=47.4 size=       0KiB time=00:00:00.76 bitrate=   0.5kbits/s speed=0.124x elapsed=0:00:06.19    \nframe=   28 fps=4.2 q=45.6 size=       0KiB time=00:00:00.86 bitrate=   0.4kbits/s speed=0.129x elapsed=0:00:06.71    \nframe=   31 fps=4.3 q=45.8 size=       0KiB time=00:00:00.96 bitrate=   0.4kbits/s speed=0.134x elapsed=0:00:07.22    \nframe=   33 fps=4.3 q=48.8 size=       0KiB time=00:00:01.03 bitrate=   0.3kbits/s speed=0.133x elapsed=0:00:07.74    \nframe=   36 fps=4.4 q=46.2 size=       0KiB time=00:00:01.13 bitrate=   0.3kbits/s speed=0.137x elapsed=0:00:08.26    \nframe=   39 fps=4.4 q=48.1 size=       0KiB time=00:00:01.23 bitrate=   0.3kbits/s speed=0.141x elapsed=0:00:08.77    \nframe=   41 fps=4.4 q=47.9 size=       0KiB time=00:00:01.30 bitrate=   0.3kbits/s speed=0.14x elapsed=0:00:09.29    \nframe=   44 fps=4.5 q=48.5 size=       0KiB time=00:00:01.40 bitrate=   0.3kbits/s speed=0.143x elapsed=0:00:09.80    \nframe=   47 fps=4.5 q=44.8 size=       0KiB time=00:00:01.50 bitrate=   0.2kbits/s speed=0.145x elapsed=0:00:10.33    \nframe=   50 fps=4.6 q=48.1 size=       0KiB time=00:00:01.60 bitrate=   0.2kbits/s speed=0.148x elapsed=0:00:10.83    \nframe=   53 fps=4.7 q=48.0 size=       0KiB time=00:00:01.70 bitrate=   0.2kbits/s speed=0.15x elapsed=0:00:11.35    \nframe=   56 fps=4.7 q=47.3 size=       0KiB time=00:00:01.80 bitrate=   0.2kbits/s speed=0.152x elapsed=0:00:11.86    \nframe=   59 fps=4.8 q=45.2 size=       0KiB time=00:00:01.90 bitrate=   0.2kbits/s speed=0.153x elapsed=0:00:12.39    \nframe=   63 fps=4.9 q=47.3 size=       0KiB time=00:00:02.03 bitrate=   0.2kbits/s speed=0.158x elapsed=0:00:12.89    \nframe=   66 fps=4.9 q=45.1 size=       0KiB time=00:00:02.13 bitrate=   0.2kbits/s speed=0.159x elapsed=0:00:13.41    \nframe=   70 fps=5.0 q=48.1 size=     256KiB time=00:00:02.26 bitrate= 925.4kbits/s speed=0.163x elapsed=0:00:13.93    \nframe=   73 fps=5.1 q=48.1 size=     256KiB time=00:00:02.36 bitrate= 886.3kbits/s speed=0.164x elapsed=0:00:14.44    \nframe=   77 fps=5.1 q=47.4 size=     256KiB time=00:00:02.50 bitrate= 839.0kbits/s speed=0.167x elapsed=0:00:14.96    \nframe=   80 fps=5.2 q=47.3 size=     256KiB time=00:00:02.60 bitrate= 806.7kbits/s speed=0.168x elapsed=0:00:15.47    \nframe=   84 fps=5.3 q=47.5 size=     256KiB time=00:00:02.73 bitrate= 767.4kbits/s speed=0.171x elapsed=0:00:15.99    \nframe=   87 fps=5.3 q=45.5 size=     256KiB time=00:00:02.83 bitrate= 740.3kbits/s speed=0.172x elapsed=0:00:16.51    \nframe=   91 fps=5.3 q=48.1 size=     256KiB time=00:00:02.96 bitrate= 707.0kbits/s speed=0.174x elapsed=0:00:17.02    \nframe=   95 fps=5.4 q=46.3 size=     256KiB time=00:00:03.10 bitrate= 676.6kbits/s speed=0.177x elapsed=0:00:17.53    \nframe=   98 fps=5.4 q=48.1 size=     256KiB time=00:00:03.20 bitrate= 655.5kbits/s speed=0.177x elapsed=0:00:18.05    \nframe=  102 fps=5.5 q=48.1 size=     256KiB time=00:00:03.33 bitrate= 629.3kbits/s speed=0.179x elapsed=0:00:18.57    \nframe=  106 fps=5.6 q=44.5 size=     256KiB time=00:00:03.46 bitrate= 605.0kbits/s speed=0.182x elapsed=0:00:19.08    \nframe=  109 fps=5.6 q=48.3 size=     256KiB time=00:00:03.56 bitrate= 588.1kbits/s speed=0.182x elapsed=0:00:19.60    \nframe=  112 fps=5.6 q=48.4 size=     256KiB time=00:00:03.66 bitrate= 572.0kbits/s speed=0.182x elapsed=0:00:20.11    \nframe=  115 fps=5.6 q=48.9 size=     256KiB time=00:00:03.76 bitrate= 556.9kbits/s speed=0.183x elapsed=0:00:20.63    \nframe=  118 fps=5.6 q=47.3 size=     256KiB time=00:00:03.86 bitrate= 542.5kbits/s speed=0.183x elapsed=0:00:21.15    \nframe=  121 fps=5.6 q=48.6 size=     256KiB time=00:00:03.96 bitrate= 528.8kbits/s speed=0.183x elapsed=0:00:21.66    \nframe=  124 fps=5.6 q=49.2 size=     256KiB time=00:00:04.06 bitrate= 515.8kbits/s speed=0.183x elapsed=0:00:22.19    \nframe=  127 fps=5.6 q=45.2 size=     256KiB time=00:00:04.16 bitrate= 503.4kbits/s speed=0.184x elapsed=0:00:22.69    \nframe=  130 fps=5.6 q=48.7 size=     256KiB time=00:00:04.26 bitrate= 491.6kbits/s speed=0.184x elapsed=0:00:23.21    \nframe=  133 fps=5.6 q=48.8 size=     512KiB time=00:00:04.36 bitrate= 960.6kbits/s speed=0.184x elapsed=0:00:23.73    \nframe=  137 fps=5.7 q=49.2 size=     512KiB time=00:00:04.50 bitrate= 932.1kbits/s speed=0.186x elapsed=0:00:24.24    \nframe=  141 fps=5.7 q=46.9 size=     512KiB time=00:00:04.63 bitrate= 905.3kbits/s speed=0.187x elapsed=0:00:24.76    \nframe=  144 fps=5.7 q=46.2 size=     512KiB time=00:00:04.73 bitrate= 886.2kbits/s speed=0.187x elapsed=0:00:25.28    \nframe=  147 fps=5.7 q=46.8 size=     512KiB time=00:00:04.83 bitrate= 867.9kbits/s speed=0.187x elapsed=0:00:25.79    \n[mp4 @ 0000024c8bd41580] Starting second pass: moving the moov atom to the beginning of the file\n[out#0/mp4 @ 0000024c8bd41440] video:591KiB audio:0KiB subtitle:0KiB other streams:0KiB global headers:2KiB muxing overhead: 0.863881%\nframe=  150 fps=5.8 q=47.9 Lsize=     597KiB time=00:00:04.93 bitrate= 990.6kbits/s speed=0.19x elapsed=0:00:26.01    \nx265 [info]: frame I:      1, Avg QP:44.85  kb/s: 3926.16 \nx265 [info]: frame P:     39, Avg QP:45.55  kb/s: 1610.81 \nx265 [info]: frame B:    110, Avg QP:47.93  kb/s: 713.29  \nx265 [info]: Weighted P-Frames: Y:15.4% UV:12.8%\n\nencoded 150 frames in 25.72s (5.83 fps), 968.06 kb/s, Avg QP:47.29\n",
  "seconds": 26.28658890724182,
  "probe_out": {}
}